<svg width="49.000000" height="40.000000" viewBox="0 0 49 40" fill="none" xmlns="http://www.w3.org/2000/svg" xmlns:xlink="http://www.w3.org/1999/xlink">
	<desc>
			Created with Pixso.
	</desc>
	<defs>
		<clipPath id="clip1_483">
			<rect id="Linear / School / Bookmark" width="40.000000" height="40.000000" fill="white" fill-opacity="0"/>
		</clipPath>
		<clipPath id="clip1_487">
			<rect id="icon" width="1.000000" height="40.000000" transform="translate(48.000000 0.000000)" fill="white" fill-opacity="0"/>
		</clipPath>
	</defs>
	<g clip-path="url(#clip1_483)">
		<path id="Vector" d="M35 26.81C35 31.97 35 34.55 33.77 35.68C33.19 36.22 32.45 36.56 31.67 36.65C30.02 36.84 28.1 35.14 24.26 31.74C22.56 30.24 21.71 29.48 20.73 29.29C20.24 29.19 19.75 29.19 19.26 29.29C18.28 29.48 17.43 30.24 15.73 31.74C11.89 35.14 9.97 36.84 8.32 36.65C7.54 36.56 6.8 36.22 6.22 35.68C5 34.55 5 31.97 5 26.81L5 18.49C5 11.34 5 7.77 7.19 5.55C9.39 3.33 12.92 3.33 20 3.33C27.07 3.33 30.6 3.33 32.8 5.55C35 7.77 35 11.34 35 18.49L35 26.81Z" stroke="#7B6EF6" stroke-opacity="1.000000" stroke-width="3.000000"/>
		<path id="Vector" d="M25 10L15 10" stroke="#7B6EF6" stroke-opacity="1.000000" stroke-width="3.000000" stroke-linecap="round"/>
	</g>
	<rect id="icon" width="1.000000" height="40.000000" transform="translate(48.000000 0.000000)" fill="#FFFFFF" fill-opacity="0"/>
	<g clip-path="url(#clip1_487)"/>
</svg>
