<svg width="16.000000" height="16.000000" viewBox="0 0 16 16" fill="none" xmlns="http://www.w3.org/2000/svg" xmlns:xlink="http://www.w3.org/1999/xlink">
	<desc>
			Created with Pixso.
	</desc>
	<defs/>
	<path id="Vector" d="M10.32 4.68C10.48 5.01 10.91 5.32 11.27 5.38L13.4 5.74C14.76 5.96 15.08 6.95 14.1 7.92L12.44 9.58C12.16 9.86 12.01 10.4 12.1 10.78L12.57 12.83C12.94 14.45 12.08 15.08 10.65 14.23L8.65 13.05C8.29 12.84 7.7 12.84 7.34 13.05L5.34 14.23C3.91 15.08 3.05 14.44 3.42 12.83L3.9 10.78C3.98 10.4 3.83 9.86 3.55 9.58L1.9 7.92C0.92 6.95 1.23 5.96 2.59 5.74L4.72 5.38C5.08 5.32 5.5 5.01 5.66 4.68L6.84 2.34C7.47 1.06 8.52 1.06 9.15 2.34L10.32 4.68Z" stroke="#FFBD6D" stroke-opacity="1.000000" stroke-width="1.500000" stroke-linejoin="round"/>
	<g opacity="0.000000"/>
</svg>
